version 1
nodes
0 "root" -1
end
skeleton
time 0
0 0 0 0 0 0 0
end
triangles
phys
0 -10 -10 0  0 0 -1  0 0
0 -10  10 0  0 0 -1  0 1
0  10  10 0  0 0 -1  1 1
phys
0 -10 -10 0  0 0 -1  0 0
0  10  10 0  0 0 -1  1 1
0  10 -10 0  0 0 -1  1 0
phys
0 -10 -10 20  0 0 1  0 0
0  10  10 20  0 0 1  1 1
0 -10  10 20  0 0 1  0 1
phys
0 -10 -10 20  0 0 1  0 0
0  10 -10 20  0 0 1  1 0
0  10  10 20  0 0 1  1 1
phys
0 -10 -10 0  0 -1 0  0 0
0  10 -10 0  0 -1 0  1 0
0  10 -10 20  0 -1 0  1 1
phys
0 -10 -10 0  0 -1 0  0 0
0  10 -10 20  0 -1 0  1 1
0 -10 -10 20  0 -1 0  0 1
phys
0 -10 10 0  0 1 0  0 0
0 -10 10 20  0 1 0  0 1
0  10 10 20  0 1 0  1 1
phys
0 -10 10 0  0 1 0  0 0
0  10 10 20  0 1 0  1 1
0  10 10 0  0 1 0  1 0
phys
0 -10 -10 0  -1 0 0  0 0
0 -10 -10 20  -1 0 0  0 1
0 -10  10 20  -1 0 0  1 1
phys
0 -10 -10 0  -1 0 0  0 0
0 -10  10 20  -1 0 0  1 1
0 -10  10 0  -1 0 0  1 0
phys
0 10 -10 0  1 0 0  0 0
0 10  10 20  1 0 0  1 1
0 10 -10 20  1 0 0  0 1
phys
0 10 -10 0  1 0 0  0 0
0 10  10 0  1 0 0  1 0
0 10  10 20  1 0 0  1 1
end