version 1
nodes
0 "root" -1
end
skeleton
time 0
0 0 0 0 0 0 0
end
triangles
fs_meter
0 -10.000000 0.000000 0.000000 0.000000 1.000000 0.000000 0.000000 1.000000
0 -9.999000 0.000000 0.000000 0.000000 1.000000 0.000000 1.000000 1.000000
0 -9.999000 0.000000 0.001000 0.000000 1.000000 0.000000 1.000000 0.000000
fs_meter
0 -9.999000 -1.000000 0.001000 -0.000000 -1.000000 -0.000000 1.000000 0.000000
0 -9.999000 -1.000000 0.000000 -0.000000 -1.000000 -0.000000 1.000000 1.000000
0 -10.000000 -1.000000 0.000000 -0.000000 -1.000000 -0.000000 0.000000 1.000000
fs_meter
0 -10.000000 0.000000 0.000000 0.000000 1.000000 0.000000 0.000000 1.000000
0 -9.999000 0.000000 0.001000 0.000000 1.000000 0.000000 1.000000 0.000000
0 -10.000000 0.000000 0.001000 0.000000 1.000000 0.000000 0.000000 0.000000
fs_meter
0 -10.000000 -1.000000 0.001000 -0.000000 -1.000000 -0.000000 0.000000 0.000000
0 -9.999000 -1.000000 0.001000 -0.000000 -1.000000 -0.000000 1.000000 0.000000
0 -10.000000 -1.000000 0.000000 -0.000000 -1.000000 -0.000000 0.000000 1.000000
end
