version 1
nodes
0 "root" -1
end
skeleton
time 0
0 0 0 0 0 0 0
end
triangles
fs_meter
0 -10.000000 0.000000 0.000000 0.000000 1.000000 0.000000 0.000000 1.000000
0 -8.000000 0.000000 0.000000 0.000000 1.000000 0.000000 1.000000 1.000000
0 -8.000000 0.000000 2.000000 0.000000 1.000000 0.000000 1.000000 0.000000
fs_meter
0 -8.000000 -1.000000 2.000000 -0.000000 -1.000000 -0.000000 1.000000 0.000000
0 -8.000000 -1.000000 0.000000 -0.000000 -1.000000 -0.000000 1.000000 1.000000
0 -10.000000 -1.000000 0.000000 -0.000000 -1.000000 -0.000000 0.000000 1.000000
fs_meter
0 -10.000000 0.000000 0.000000 0.000000 1.000000 0.000000 0.000000 1.000000
0 -8.000000 0.000000 2.000000 0.000000 1.000000 0.000000 1.000000 0.000000
0 -10.000000 0.000000 2.000000 0.000000 1.000000 0.000000 0.000000 0.000000
fs_meter
0 -10.000000 -1.000000 2.000000 -0.000000 -1.000000 -0.000000 0.000000 0.000000
0 -8.000000 -1.000000 2.000000 -0.000000 -1.000000 -0.000000 1.000000 0.000000
0 -10.000000 -1.000000 0.000000 -0.000000 -1.000000 -0.000000 0.000000 1.000000
fs_meter
0 -10.000000 0.000000 2.000000 0.000000 1.000000 0.000000 0.000000 1.000000
0 -8.000000 0.000000 2.000000 0.000000 1.000000 0.000000 1.000000 1.000000
0 -8.000000 0.000000 4.000000 0.000000 1.000000 0.000000 1.000000 0.000000
fs_meter
0 -8.000000 -1.000000 4.000000 -0.000000 -1.000000 -0.000000 1.000000 0.000000
0 -8.000000 -1.000000 2.000000 -0.000000 -1.000000 -0.000000 1.000000 1.000000
0 -10.000000 -1.000000 2.000000 -0.000000 -1.000000 -0.000000 0.000000 1.000000
fs_meter
0 -10.000000 0.000000 2.000000 0.000000 1.000000 0.000000 0.000000 1.000000
0 -8.000000 0.000000 4.000000 0.000000 1.000000 0.000000 1.000000 0.000000
0 -10.000000 0.000000 4.000000 0.000000 1.000000 0.000000 0.000000 0.000000
fs_meter
0 -10.000000 -1.000000 4.000000 -0.000000 -1.000000 -0.000000 0.000000 0.000000
0 -8.000000 -1.000000 4.000000 -0.000000 -1.000000 -0.000000 1.000000 0.000000
0 -10.000000 -1.000000 2.000000 -0.000000 -1.000000 -0.000000 0.000000 1.000000
fs_meter
0 -10.000000 0.000000 4.000000 0.000000 1.000000 0.000000 0.000000 1.000000
0 -8.000000 0.000000 4.000000 0.000000 1.000000 0.000000 1.000000 1.000000
0 -8.000000 0.000000 6.000000 0.000000 1.000000 0.000000 1.000000 0.000000
fs_meter
0 -8.000000 -1.000000 6.000000 -0.000000 -1.000000 -0.000000 1.000000 0.000000
0 -8.000000 -1.000000 4.000000 -0.000000 -1.000000 -0.000000 1.000000 1.000000
0 -10.000000 -1.000000 4.000000 -0.000000 -1.000000 -0.000000 0.000000 1.000000
fs_meter
0 -10.000000 0.000000 4.000000 0.000000 1.000000 0.000000 0.000000 1.000000
0 -8.000000 0.000000 6.000000 0.000000 1.000000 0.000000 1.000000 0.000000
0 -10.000000 0.000000 6.000000 0.000000 1.000000 0.000000 0.000000 0.000000
fs_meter
0 -10.000000 -1.000000 6.000000 -0.000000 -1.000000 -0.000000 0.000000 0.000000
0 -8.000000 -1.000000 6.000000 -0.000000 -1.000000 -0.000000 1.000000 0.000000
0 -10.000000 -1.000000 4.000000 -0.000000 -1.000000 -0.000000 0.000000 1.000000
fs_meter
0 -10.000000 0.000000 6.000000 0.000000 1.000000 0.000000 0.000000 1.000000
0 -8.000000 0.000000 6.000000 0.000000 1.000000 0.000000 1.000000 1.000000
0 -8.000000 0.000000 8.000000 0.000000 1.000000 0.000000 1.000000 0.000000
fs_meter
0 -8.000000 -1.000000 8.000000 -0.000000 -1.000000 -0.000000 1.000000 0.000000
0 -8.000000 -1.000000 6.000000 -0.000000 -1.000000 -0.000000 1.000000 1.000000
0 -10.000000 -1.000000 6.000000 -0.000000 -1.000000 -0.000000 0.000000 1.000000
fs_meter
0 -10.000000 0.000000 6.000000 0.000000 1.000000 0.000000 0.000000 1.000000
0 -8.000000 0.000000 8.000000 0.000000 1.000000 0.000000 1.000000 0.000000
0 -10.000000 0.000000 8.000000 0.000000 1.000000 0.000000 0.000000 0.000000
fs_meter
0 -10.000000 -1.000000 8.000000 -0.000000 -1.000000 -0.000000 0.000000 0.000000
0 -8.000000 -1.000000 8.000000 -0.000000 -1.000000 -0.000000 1.000000 0.000000
0 -10.000000 -1.000000 6.000000 -0.000000 -1.000000 -0.000000 0.000000 1.000000
fs_meter
0 -10.000000 0.000000 8.000000 0.000000 1.000000 0.000000 0.000000 1.000000
0 -8.000000 0.000000 8.000000 0.000000 1.000000 0.000000 1.000000 1.000000
0 -8.000000 0.000000 10.000000 0.000000 1.000000 0.000000 1.000000 0.000000
fs_meter
0 -8.000000 -1.000000 10.000000 -0.000000 -1.000000 -0.000000 1.000000 0.000000
0 -8.000000 -1.000000 8.000000 -0.000000 -1.000000 -0.000000 1.000000 1.000000
0 -10.000000 -1.000000 8.000000 -0.000000 -1.000000 -0.000000 0.000000 1.000000
fs_meter
0 -10.000000 0.000000 8.000000 0.000000 1.000000 0.000000 0.000000 1.000000
0 -8.000000 0.000000 10.000000 0.000000 1.000000 0.000000 1.000000 0.000000
0 -10.000000 0.000000 10.000000 0.000000 1.000000 0.000000 0.000000 0.000000
fs_meter
0 -10.000000 -1.000000 10.000000 -0.000000 -1.000000 -0.000000 0.000000 0.000000
0 -8.000000 -1.000000 10.000000 -0.000000 -1.000000 -0.000000 1.000000 0.000000
0 -10.000000 -1.000000 8.000000 -0.000000 -1.000000 -0.000000 0.000000 1.000000
fs_meter
0 -10.000000 0.000000 10.000000 0.000000 1.000000 0.000000 0.000000 1.000000
0 -8.000000 0.000000 10.000000 0.000000 1.000000 0.000000 1.000000 1.000000
0 -8.000000 0.000000 12.000000 0.000000 1.000000 0.000000 1.000000 0.000000
fs_meter
0 -8.000000 -1.000000 12.000000 -0.000000 -1.000000 -0.000000 1.000000 0.000000
0 -8.000000 -1.000000 10.000000 -0.000000 -1.000000 -0.000000 1.000000 1.000000
0 -10.000000 -1.000000 10.000000 -0.000000 -1.000000 -0.000000 0.000000 1.000000
fs_meter
0 -10.000000 0.000000 10.000000 0.000000 1.000000 0.000000 0.000000 1.000000
0 -8.000000 0.000000 12.000000 0.000000 1.000000 0.000000 1.000000 0.000000
0 -10.000000 0.000000 12.000000 0.000000 1.000000 0.000000 0.000000 0.000000
fs_meter
0 -10.000000 -1.000000 12.000000 -0.000000 -1.000000 -0.000000 0.000000 0.000000
0 -8.000000 -1.000000 12.000000 -0.000000 -1.000000 -0.000000 1.000000 0.000000
0 -10.000000 -1.000000 10.000000 -0.000000 -1.000000 -0.000000 0.000000 1.000000
fs_meter
0 -10.000000 0.000000 12.000000 0.000000 1.000000 0.000000 0.000000 1.000000
0 -8.000000 0.000000 12.000000 0.000000 1.000000 0.000000 1.000000 1.000000
0 -8.000000 0.000000 14.000000 0.000000 1.000000 0.000000 1.000000 0.000000
fs_meter
0 -8.000000 -1.000000 14.000000 -0.000000 -1.000000 -0.000000 1.000000 0.000000
0 -8.000000 -1.000000 12.000000 -0.000000 -1.000000 -0.000000 1.000000 1.000000
0 -10.000000 -1.000000 12.000000 -0.000000 -1.000000 -0.000000 0.000000 1.000000
fs_meter
0 -10.000000 0.000000 12.000000 0.000000 1.000000 0.000000 0.000000 1.000000
0 -8.000000 0.000000 14.000000 0.000000 1.000000 0.000000 1.000000 0.000000
0 -10.000000 0.000000 14.000000 0.000000 1.000000 0.000000 0.000000 0.000000
fs_meter
0 -10.000000 -1.000000 14.000000 -0.000000 -1.000000 -0.000000 0.000000 0.000000
0 -8.000000 -1.000000 14.000000 -0.000000 -1.000000 -0.000000 1.000000 0.000000
0 -10.000000 -1.000000 12.000000 -0.000000 -1.000000 -0.000000 0.000000 1.000000
fs_meter
0 -10.000000 0.000000 14.000000 0.000000 1.000000 0.000000 0.000000 1.000000
0 -8.000000 0.000000 14.000000 0.000000 1.000000 0.000000 1.000000 1.000000
0 -8.000000 0.000000 16.000000 0.000000 1.000000 0.000000 1.000000 0.000000
fs_meter
0 -8.000000 -1.000000 16.000000 -0.000000 -1.000000 -0.000000 1.000000 0.000000
0 -8.000000 -1.000000 14.000000 -0.000000 -1.000000 -0.000000 1.000000 1.000000
0 -10.000000 -1.000000 14.000000 -0.000000 -1.000000 -0.000000 0.000000 1.000000
fs_meter
0 -10.000000 0.000000 14.000000 0.000000 1.000000 0.000000 0.000000 1.000000
0 -8.000000 0.000000 16.000000 0.000000 1.000000 0.000000 1.000000 0.000000
0 -10.000000 0.000000 16.000000 0.000000 1.000000 0.000000 0.000000 0.000000
fs_meter
0 -10.000000 -1.000000 16.000000 -0.000000 -1.000000 -0.000000 0.000000 0.000000
0 -8.000000 -1.000000 16.000000 -0.000000 -1.000000 -0.000000 1.000000 0.000000
0 -10.000000 -1.000000 14.000000 -0.000000 -1.000000 -0.000000 0.000000 1.000000
fs_meter
0 -10.000000 0.000000 16.000000 0.000000 1.000000 0.000000 0.000000 1.000000
0 -8.000000 0.000000 16.000000 0.000000 1.000000 0.000000 1.000000 1.000000
0 -8.000000 0.000000 18.000000 0.000000 1.000000 0.000000 1.000000 0.000000
fs_meter
0 -8.000000 -1.000000 18.000000 -0.000000 -1.000000 -0.000000 1.000000 0.000000
0 -8.000000 -1.000000 16.000000 -0.000000 -1.000000 -0.000000 1.000000 1.000000
0 -10.000000 -1.000000 16.000000 -0.000000 -1.000000 -0.000000 0.000000 1.000000
fs_meter
0 -10.000000 0.000000 16.000000 0.000000 1.000000 0.000000 0.000000 1.000000
0 -8.000000 0.000000 18.000000 0.000000 1.000000 0.000000 1.000000 0.000000
0 -10.000000 0.000000 18.000000 0.000000 1.000000 0.000000 0.000000 0.000000
fs_meter
0 -10.000000 -1.000000 18.000000 -0.000000 -1.000000 -0.000000 0.000000 0.000000
0 -8.000000 -1.000000 18.000000 -0.000000 -1.000000 -0.000000 1.000000 0.000000
0 -10.000000 -1.000000 16.000000 -0.000000 -1.000000 -0.000000 0.000000 1.000000
fs_meter
0 -10.000000 0.000000 18.000000 0.000000 1.000000 0.000000 0.000000 1.000000
0 -8.000000 0.000000 18.000000 0.000000 1.000000 0.000000 1.000000 1.000000
0 -8.000000 0.000000 20.000000 0.000000 1.000000 0.000000 1.000000 0.000000
fs_meter
0 -8.000000 -1.000000 20.000000 -0.000000 -1.000000 -0.000000 1.000000 0.000000
0 -8.000000 -1.000000 18.000000 -0.000000 -1.000000 -0.000000 1.000000 1.000000
0 -10.000000 -1.000000 18.000000 -0.000000 -1.000000 -0.000000 0.000000 1.000000
fs_meter
0 -10.000000 0.000000 18.000000 0.000000 1.000000 0.000000 0.000000 1.000000
0 -8.000000 0.000000 20.000000 0.000000 1.000000 0.000000 1.000000 0.000000
0 -10.000000 0.000000 20.000000 0.000000 1.000000 0.000000 0.000000 0.000000
fs_meter
0 -10.000000 -1.000000 20.000000 -0.000000 -1.000000 -0.000000 0.000000 0.000000
0 -8.000000 -1.000000 20.000000 -0.000000 -1.000000 -0.000000 1.000000 0.000000
0 -10.000000 -1.000000 18.000000 -0.000000 -1.000000 -0.000000 0.000000 1.000000
fs_meter
0 -8.000000 0.000000 0.000000 0.000000 1.000000 0.000000 0.000000 1.000000
0 -6.000000 0.000000 0.000000 0.000000 1.000000 0.000000 1.000000 1.000000
0 -6.000000 0.000000 2.000000 0.000000 1.000000 0.000000 1.000000 0.000000
fs_meter
0 -6.000000 -1.000000 2.000000 -0.000000 -1.000000 -0.000000 1.000000 0.000000
0 -6.000000 -1.000000 0.000000 -0.000000 -1.000000 -0.000000 1.000000 1.000000
0 -8.000000 -1.000000 0.000000 -0.000000 -1.000000 -0.000000 0.000000 1.000000
fs_meter
0 -8.000000 0.000000 0.000000 0.000000 1.000000 0.000000 0.000000 1.000000
0 -6.000000 0.000000 2.000000 0.000000 1.000000 0.000000 1.000000 0.000000
0 -8.000000 0.000000 2.000000 0.000000 1.000000 0.000000 0.000000 0.000000
fs_meter
0 -8.000000 -1.000000 2.000000 -0.000000 -1.000000 -0.000000 0.000000 0.000000
0 -6.000000 -1.000000 2.000000 -0.000000 -1.000000 -0.000000 1.000000 0.000000
0 -8.000000 -1.000000 0.000000 -0.000000 -1.000000 -0.000000 0.000000 1.000000
fs_meter
0 -8.000000 0.000000 2.000000 0.000000 1.000000 0.000000 0.000000 1.000000
0 -6.000000 0.000000 2.000000 0.000000 1.000000 0.000000 1.000000 1.000000
0 -6.000000 0.000000 4.000000 0.000000 1.000000 0.000000 1.000000 0.000000
fs_meter
0 -6.000000 -1.000000 4.000000 -0.000000 -1.000000 -0.000000 1.000000 0.000000
0 -6.000000 -1.000000 2.000000 -0.000000 -1.000000 -0.000000 1.000000 1.000000
0 -8.000000 -1.000000 2.000000 -0.000000 -1.000000 -0.000000 0.000000 1.000000
fs_meter
0 -8.000000 0.000000 2.000000 0.000000 1.000000 0.000000 0.000000 1.000000
0 -6.000000 0.000000 4.000000 0.000000 1.000000 0.000000 1.000000 0.000000
0 -8.000000 0.000000 4.000000 0.000000 1.000000 0.000000 0.000000 0.000000
fs_meter
0 -8.000000 -1.000000 4.000000 -0.000000 -1.000000 -0.000000 0.000000 0.000000
0 -6.000000 -1.000000 4.000000 -0.000000 -1.000000 -0.000000 1.000000 0.000000
0 -8.000000 -1.000000 2.000000 -0.000000 -1.000000 -0.000000 0.000000 1.000000
fs_meter
0 -8.000000 0.000000 4.000000 0.000000 1.000000 0.000000 0.000000 1.000000
0 -6.000000 0.000000 4.000000 0.000000 1.000000 0.000000 1.000000 1.000000
0 -6.000000 0.000000 6.000000 0.000000 1.000000 0.000000 1.000000 0.000000
fs_meter
0 -6.000000 -1.000000 6.000000 -0.000000 -1.000000 -0.000000 1.000000 0.000000
0 -6.000000 -1.000000 4.000000 -0.000000 -1.000000 -0.000000 1.000000 1.000000
0 -8.000000 -1.000000 4.000000 -0.000000 -1.000000 -0.000000 0.000000 1.000000
fs_meter
0 -8.000000 0.000000 4.000000 0.000000 1.000000 0.000000 0.000000 1.000000
0 -6.000000 0.000000 6.000000 0.000000 1.000000 0.000000 1.000000 0.000000
0 -8.000000 0.000000 6.000000 0.000000 1.000000 0.000000 0.000000 0.000000
fs_meter
0 -8.000000 -1.000000 6.000000 -0.000000 -1.000000 -0.000000 0.000000 0.000000
0 -6.000000 -1.000000 6.000000 -0.000000 -1.000000 -0.000000 1.000000 0.000000
0 -8.000000 -1.000000 4.000000 -0.000000 -1.000000 -0.000000 0.000000 1.000000
fs_meter
0 -8.000000 0.000000 6.000000 0.000000 1.000000 0.000000 0.000000 1.000000
0 -6.000000 0.000000 6.000000 0.000000 1.000000 0.000000 1.000000 1.000000
0 -6.000000 0.000000 8.000000 0.000000 1.000000 0.000000 1.000000 0.000000
fs_meter
0 -6.000000 -1.000000 8.000000 -0.000000 -1.000000 -0.000000 1.000000 0.000000
0 -6.000000 -1.000000 6.000000 -0.000000 -1.000000 -0.000000 1.000000 1.000000
0 -8.000000 -1.000000 6.000000 -0.000000 -1.000000 -0.000000 0.000000 1.000000
fs_meter
0 -8.000000 0.000000 6.000000 0.000000 1.000000 0.000000 0.000000 1.000000
0 -6.000000 0.000000 8.000000 0.000000 1.000000 0.000000 1.000000 0.000000
0 -8.000000 0.000000 8.000000 0.000000 1.000000 0.000000 0.000000 0.000000
fs_meter
0 -8.000000 -1.000000 8.000000 -0.000000 -1.000000 -0.000000 0.000000 0.000000
0 -6.000000 -1.000000 8.000000 -0.000000 -1.000000 -0.000000 1.000000 0.000000
0 -8.000000 -1.000000 6.000000 -0.000000 -1.000000 -0.000000 0.000000 1.000000
fs_meter
0 -8.000000 0.000000 8.000000 0.000000 1.000000 0.000000 0.000000 1.000000
0 -6.000000 0.000000 8.000000 0.000000 1.000000 0.000000 1.000000 1.000000
0 -6.000000 0.000000 10.000000 0.000000 1.000000 0.000000 1.000000 0.000000
fs_meter
0 -6.000000 -1.000000 10.000000 -0.000000 -1.000000 -0.000000 1.000000 0.000000
0 -6.000000 -1.000000 8.000000 -0.000000 -1.000000 -0.000000 1.000000 1.000000
0 -8.000000 -1.000000 8.000000 -0.000000 -1.000000 -0.000000 0.000000 1.000000
fs_meter
0 -8.000000 0.000000 8.000000 0.000000 1.000000 0.000000 0.000000 1.000000
0 -6.000000 0.000000 10.000000 0.000000 1.000000 0.000000 1.000000 0.000000
0 -8.000000 0.000000 10.000000 0.000000 1.000000 0.000000 0.000000 0.000000
fs_meter
0 -8.000000 -1.000000 10.000000 -0.000000 -1.000000 -0.000000 0.000000 0.000000
0 -6.000000 -1.000000 10.000000 -0.000000 -1.000000 -0.000000 1.000000 0.000000
0 -8.000000 -1.000000 8.000000 -0.000000 -1.000000 -0.000000 0.000000 1.000000
fs_meter
0 -8.000000 0.000000 10.000000 0.000000 1.000000 0.000000 0.000000 1.000000
0 -6.000000 0.000000 10.000000 0.000000 1.000000 0.000000 1.000000 1.000000
0 -6.000000 0.000000 12.000000 0.000000 1.000000 0.000000 1.000000 0.000000
fs_meter
0 -6.000000 -1.000000 12.000000 -0.000000 -1.000000 -0.000000 1.000000 0.000000
0 -6.000000 -1.000000 10.000000 -0.000000 -1.000000 -0.000000 1.000000 1.000000
0 -8.000000 -1.000000 10.000000 -0.000000 -1.000000 -0.000000 0.000000 1.000000
fs_meter
0 -8.000000 0.000000 10.000000 0.000000 1.000000 0.000000 0.000000 1.000000
0 -6.000000 0.000000 12.000000 0.000000 1.000000 0.000000 1.000000 0.000000
0 -8.000000 0.000000 12.000000 0.000000 1.000000 0.000000 0.000000 0.000000
fs_meter
0 -8.000000 -1.000000 12.000000 -0.000000 -1.000000 -0.000000 0.000000 0.000000
0 -6.000000 -1.000000 12.000000 -0.000000 -1.000000 -0.000000 1.000000 0.000000
0 -8.000000 -1.000000 10.000000 -0.000000 -1.000000 -0.000000 0.000000 1.000000
fs_meter
0 -8.000000 0.000000 12.000000 0.000000 1.000000 0.000000 0.000000 1.000000
0 -6.000000 0.000000 12.000000 0.000000 1.000000 0.000000 1.000000 1.000000
0 -6.000000 0.000000 14.000000 0.000000 1.000000 0.000000 1.000000 0.000000
fs_meter
0 -6.000000 -1.000000 14.000000 -0.000000 -1.000000 -0.000000 1.000000 0.000000
0 -6.000000 -1.000000 12.000000 -0.000000 -1.000000 -0.000000 1.000000 1.000000
0 -8.000000 -1.000000 12.000000 -0.000000 -1.000000 -0.000000 0.000000 1.000000
fs_meter
0 -8.000000 0.000000 12.000000 0.000000 1.000000 0.000000 0.000000 1.000000
0 -6.000000 0.000000 14.000000 0.000000 1.000000 0.000000 1.000000 0.000000
0 -8.000000 0.000000 14.000000 0.000000 1.000000 0.000000 0.000000 0.000000
fs_meter
0 -8.000000 -1.000000 14.000000 -0.000000 -1.000000 -0.000000 0.000000 0.000000
0 -6.000000 -1.000000 14.000000 -0.000000 -1.000000 -0.000000 1.000000 0.000000
0 -8.000000 -1.000000 12.000000 -0.000000 -1.000000 -0.000000 0.000000 1.000000
fs_meter
0 -8.000000 0.000000 14.000000 0.000000 1.000000 0.000000 0.000000 1.000000
0 -6.000000 0.000000 14.000000 0.000000 1.000000 0.000000 1.000000 1.000000
0 -6.000000 0.000000 16.000000 0.000000 1.000000 0.000000 1.000000 0.000000
fs_meter
0 -6.000000 -1.000000 16.000000 -0.000000 -1.000000 -0.000000 1.000000 0.000000
0 -6.000000 -1.000000 14.000000 -0.000000 -1.000000 -0.000000 1.000000 1.000000
0 -8.000000 -1.000000 14.000000 -0.000000 -1.000000 -0.000000 0.000000 1.000000
fs_meter
0 -8.000000 0.000000 14.000000 0.000000 1.000000 0.000000 0.000000 1.000000
0 -6.000000 0.000000 16.000000 0.000000 1.000000 0.000000 1.000000 0.000000
0 -8.000000 0.000000 16.000000 0.000000 1.000000 0.000000 0.000000 0.000000
fs_meter
0 -8.000000 -1.000000 16.000000 -0.000000 -1.000000 -0.000000 0.000000 0.000000
0 -6.000000 -1.000000 16.000000 -0.000000 -1.000000 -0.000000 1.000000 0.000000
0 -8.000000 -1.000000 14.000000 -0.000000 -1.000000 -0.000000 0.000000 1.000000
fs_meter
0 -8.000000 0.000000 16.000000 0.000000 1.000000 0.000000 0.000000 1.000000
0 -6.000000 0.000000 16.000000 0.000000 1.000000 0.000000 1.000000 1.000000
0 -6.000000 0.000000 18.000000 0.000000 1.000000 0.000000 1.000000 0.000000
fs_meter
0 -6.000000 -1.000000 18.000000 -0.000000 -1.000000 -0.000000 1.000000 0.000000
0 -6.000000 -1.000000 16.000000 -0.000000 -1.000000 -0.000000 1.000000 1.000000
0 -8.000000 -1.000000 16.000000 -0.000000 -1.000000 -0.000000 0.000000 1.000000
fs_meter
0 -8.000000 0.000000 16.000000 0.000000 1.000000 0.000000 0.000000 1.000000
0 -6.000000 0.000000 18.000000 0.000000 1.000000 0.000000 1.000000 0.000000
0 -8.000000 0.000000 18.000000 0.000000 1.000000 0.000000 0.000000 0.000000
fs_meter
0 -8.000000 -1.000000 18.000000 -0.000000 -1.000000 -0.000000 0.000000 0.000000
0 -6.000000 -1.000000 18.000000 -0.000000 -1.000000 -0.000000 1.000000 0.000000
0 -8.000000 -1.000000 16.000000 -0.000000 -1.000000 -0.000000 0.000000 1.000000
fs_meter
0 -8.000000 0.000000 18.000000 0.000000 1.000000 0.000000 0.000000 1.000000
0 -6.000000 0.000000 18.000000 0.000000 1.000000 0.000000 1.000000 1.000000
0 -6.000000 0.000000 20.000000 0.000000 1.000000 0.000000 1.000000 0.000000
fs_meter
0 -6.000000 -1.000000 20.000000 -0.000000 -1.000000 -0.000000 1.000000 0.000000
0 -6.000000 -1.000000 18.000000 -0.000000 -1.000000 -0.000000 1.000000 1.000000
0 -8.000000 -1.000000 18.000000 -0.000000 -1.000000 -0.000000 0.000000 1.000000
fs_meter
0 -8.000000 0.000000 18.000000 0.000000 1.000000 0.000000 0.000000 1.000000
0 -6.000000 0.000000 20.000000 0.000000 1.000000 0.000000 1.000000 0.000000
0 -8.000000 0.000000 20.000000 0.000000 1.000000 0.000000 0.000000 0.000000
fs_meter
0 -8.000000 -1.000000 20.000000 -0.000000 -1.000000 -0.000000 0.000000 0.000000
0 -6.000000 -1.000000 20.000000 -0.000000 -1.000000 -0.000000 1.000000 0.000000
0 -8.000000 -1.000000 18.000000 -0.000000 -1.000000 -0.000000 0.000000 1.000000
fs_meter
0 -6.000000 0.000000 0.000000 0.000000 1.000000 0.000000 0.000000 1.000000
0 -4.000000 0.000000 0.000000 0.000000 1.000000 0.000000 1.000000 1.000000
0 -4.000000 0.000000 2.000000 0.000000 1.000000 0.000000 1.000000 0.000000
fs_meter
0 -4.000000 -1.000000 2.000000 -0.000000 -1.000000 -0.000000 1.000000 0.000000
0 -4.000000 -1.000000 0.000000 -0.000000 -1.000000 -0.000000 1.000000 1.000000
0 -6.000000 -1.000000 0.000000 -0.000000 -1.000000 -0.000000 0.000000 1.000000
fs_meter
0 -6.000000 0.000000 0.000000 0.000000 1.000000 0.000000 0.000000 1.000000
0 -4.000000 0.000000 2.000000 0.000000 1.000000 0.000000 1.000000 0.000000
0 -6.000000 0.000000 2.000000 0.000000 1.000000 0.000000 0.000000 0.000000
fs_meter
0 -6.000000 -1.000000 2.000000 -0.000000 -1.000000 -0.000000 0.000000 0.000000
0 -4.000000 -1.000000 2.000000 -0.000000 -1.000000 -0.000000 1.000000 0.000000
0 -6.000000 -1.000000 0.000000 -0.000000 -1.000000 -0.000000 0.000000 1.000000
fs_meter
0 -6.000000 0.000000 2.000000 0.000000 1.000000 0.000000 0.000000 1.000000
0 -4.000000 0.000000 2.000000 0.000000 1.000000 0.000000 1.000000 1.000000
0 -4.000000 0.000000 4.000000 0.000000 1.000000 0.000000 1.000000 0.000000
fs_meter
0 -4.000000 -1.000000 4.000000 -0.000000 -1.000000 -0.000000 1.000000 0.000000
0 -4.000000 -1.000000 2.000000 -0.000000 -1.000000 -0.000000 1.000000 1.000000
0 -6.000000 -1.000000 2.000000 -0.000000 -1.000000 -0.000000 0.000000 1.000000
fs_meter
0 -6.000000 0.000000 2.000000 0.000000 1.000000 0.000000 0.000000 1.000000
0 -4.000000 0.000000 4.000000 0.000000 1.000000 0.000000 1.000000 0.000000
0 -6.000000 0.000000 4.000000 0.000000 1.000000 0.000000 0.000000 0.000000
fs_meter
0 -6.000000 -1.000000 4.000000 -0.000000 -1.000000 -0.000000 0.000000 0.000000
0 -4.000000 -1.000000 4.000000 -0.000000 -1.000000 -0.000000 1.000000 0.000000
0 -6.000000 -1.000000 2.000000 -0.000000 -1.000000 -0.000000 0.000000 1.000000
fs_meter
0 -6.000000 0.000000 4.000000 0.000000 1.000000 0.000000 0.000000 1.000000
0 -4.000000 0.000000 4.000000 0.000000 1.000000 0.000000 1.000000 1.000000
0 -4.000000 0.000000 6.000000 0.000000 1.000000 0.000000 1.000000 0.000000
fs_meter
0 -4.000000 -1.000000 6.000000 -0.000000 -1.000000 -0.000000 1.000000 0.000000
0 -4.000000 -1.000000 4.000000 -0.000000 -1.000000 -0.000000 1.000000 1.000000
0 -6.000000 -1.000000 4.000000 -0.000000 -1.000000 -0.000000 0.000000 1.000000
fs_meter
0 -6.000000 0.000000 4.000000 0.000000 1.000000 0.000000 0.000000 1.000000
0 -4.000000 0.000000 6.000000 0.000000 1.000000 0.000000 1.000000 0.000000
0 -6.000000 0.000000 6.000000 0.000000 1.000000 0.000000 0.000000 0.000000
fs_meter
0 -6.000000 -1.000000 6.000000 -0.000000 -1.000000 -0.000000 0.000000 0.000000
0 -4.000000 -1.000000 6.000000 -0.000000 -1.000000 -0.000000 1.000000 0.000000
0 -6.000000 -1.000000 4.000000 -0.000000 -1.000000 -0.000000 0.000000 1.000000
fs_meter
0 -6.000000 0.000000 6.000000 0.000000 1.000000 0.000000 0.000000 1.000000
0 -4.000000 0.000000 6.000000 0.000000 1.000000 0.000000 1.000000 1.000000
0 -4.000000 0.000000 8.000000 0.000000 1.000000 0.000000 1.000000 0.000000
fs_meter
0 -4.000000 -1.000000 8.000000 -0.000000 -1.000000 -0.000000 1.000000 0.000000
0 -4.000000 -1.000000 6.000000 -0.000000 -1.000000 -0.000000 1.000000 1.000000
0 -6.000000 -1.000000 6.000000 -0.000000 -1.000000 -0.000000 0.000000 1.000000
fs_meter
0 -6.000000 0.000000 6.000000 0.000000 1.000000 0.000000 0.000000 1.000000
0 -4.000000 0.000000 8.000000 0.000000 1.000000 0.000000 1.000000 0.000000
0 -6.000000 0.000000 8.000000 0.000000 1.000000 0.000000 0.000000 0.000000
fs_meter
0 -6.000000 -1.000000 8.000000 -0.000000 -1.000000 -0.000000 0.000000 0.000000
0 -4.000000 -1.000000 8.000000 -0.000000 -1.000000 -0.000000 1.000000 0.000000
0 -6.000000 -1.000000 6.000000 -0.000000 -1.000000 -0.000000 0.000000 1.000000
fs_meter
0 -6.000000 0.000000 8.000000 0.000000 1.000000 0.000000 0.000000 1.000000
0 -4.000000 0.000000 8.000000 0.000000 1.000000 0.000000 1.000000 1.000000
0 -4.000000 0.000000 10.000000 0.000000 1.000000 0.000000 1.000000 0.000000
fs_meter
0 -4.000000 -1.000000 10.000000 -0.000000 -1.000000 -0.000000 1.000000 0.000000
0 -4.000000 -1.000000 8.000000 -0.000000 -1.000000 -0.000000 1.000000 1.000000
0 -6.000000 -1.000000 8.000000 -0.000000 -1.000000 -0.000000 0.000000 1.000000
fs_meter
0 -6.000000 0.000000 8.000000 0.000000 1.000000 0.000000 0.000000 1.000000
0 -4.000000 0.000000 10.000000 0.000000 1.000000 0.000000 1.000000 0.000000
0 -6.000000 0.000000 10.000000 0.000000 1.000000 0.000000 0.000000 0.000000
fs_meter
0 -6.000000 -1.000000 10.000000 -0.000000 -1.000000 -0.000000 0.000000 0.000000
0 -4.000000 -1.000000 10.000000 -0.000000 -1.000000 -0.000000 1.000000 0.000000
0 -6.000000 -1.000000 8.000000 -0.000000 -1.000000 -0.000000 0.000000 1.000000
fs_meter
0 -6.000000 0.000000 10.000000 0.000000 1.000000 0.000000 0.000000 1.000000
0 -4.000000 0.000000 10.000000 0.000000 1.000000 0.000000 1.000000 1.000000
0 -4.000000 0.000000 12.000000 0.000000 1.000000 0.000000 1.000000 0.000000
fs_meter
0 -4.000000 -1.000000 12.000000 -0.000000 -1.000000 -0.000000 1.000000 0.000000
0 -4.000000 -1.000000 10.000000 -0.000000 -1.000000 -0.000000 1.000000 1.000000
0 -6.000000 -1.000000 10.000000 -0.000000 -1.000000 -0.000000 0.000000 1.000000
fs_meter
0 -6.000000 0.000000 10.000000 0.000000 1.000000 0.000000 0.000000 1.000000
0 -4.000000 0.000000 12.000000 0.000000 1.000000 0.000000 1.000000 0.000000
0 -6.000000 0.000000 12.000000 0.000000 1.000000 0.000000 0.000000 0.000000
fs_meter
0 -6.000000 -1.000000 12.000000 -0.000000 -1.000000 -0.000000 0.000000 0.000000
0 -4.000000 -1.000000 12.000000 -0.000000 -1.000000 -0.000000 1.000000 0.000000
0 -6.000000 -1.000000 10.000000 -0.000000 -1.000000 -0.000000 0.000000 1.000000
fs_meter
0 -10.000000 0.000000 0.000000 0.000000 0.000000 -1.000000 0.000000 1.000000
0 -8.000000 0.000000 0.000000 0.000000 0.000000 -1.000000 1.000000 1.000000
0 -8.000000 -1.000000 0.000000 0.000000 0.000000 -1.000000 1.000000 1.000000
fs_meter
0 -10.000000 0.000000 0.000000 0.000000 0.000000 -1.000000 0.000000 1.000000
0 -8.000000 -1.000000 0.000000 0.000000 0.000000 -1.000000 1.000000 1.000000
0 -10.000000 -1.000000 0.000000 0.000000 0.000000 -1.000000 0.000000 1.000000
fs_meter
0 -10.000000 0.000000 2.000000 -1.000000 -0.000000 -0.000000 0.000000 0.000000
0 -10.000000 0.000000 0.000000 -1.000000 -0.000000 -0.000000 0.000000 1.000000
0 -10.000000 -1.000000 0.000000 -1.000000 -0.000000 -0.000000 0.000000 1.000000
fs_meter
0 -10.000000 0.000000 2.000000 -1.000000 -0.000000 -0.000000 0.000000 0.000000
0 -10.000000 -1.000000 0.000000 -1.000000 -0.000000 -0.000000 0.000000 1.000000
0 -10.000000 -1.000000 2.000000 -1.000000 -0.000000 -0.000000 0.000000 0.000000
fs_meter
0 -10.000000 0.000000 4.000000 -1.000000 -0.000000 -0.000000 0.000000 0.000000
0 -10.000000 0.000000 2.000000 -1.000000 -0.000000 -0.000000 0.000000 1.000000
0 -10.000000 -1.000000 2.000000 -1.000000 -0.000000 -0.000000 0.000000 1.000000
fs_meter
0 -10.000000 0.000000 4.000000 -1.000000 -0.000000 -0.000000 0.000000 0.000000
0 -10.000000 -1.000000 2.000000 -1.000000 -0.000000 -0.000000 0.000000 1.000000
0 -10.000000 -1.000000 4.000000 -1.000000 -0.000000 -0.000000 0.000000 0.000000
fs_meter
0 -10.000000 0.000000 6.000000 -1.000000 -0.000000 -0.000000 0.000000 0.000000
0 -10.000000 0.000000 4.000000 -1.000000 -0.000000 -0.000000 0.000000 1.000000
0 -10.000000 -1.000000 4.000000 -1.000000 -0.000000 -0.000000 0.000000 1.000000
fs_meter
0 -10.000000 0.000000 6.000000 -1.000000 -0.000000 -0.000000 0.000000 0.000000
0 -10.000000 -1.000000 4.000000 -1.000000 -0.000000 -0.000000 0.000000 1.000000
0 -10.000000 -1.000000 6.000000 -1.000000 -0.000000 -0.000000 0.000000 0.000000
fs_meter
0 -10.000000 0.000000 8.000000 -1.000000 -0.000000 -0.000000 0.000000 0.000000
0 -10.000000 0.000000 6.000000 -1.000000 -0.000000 -0.000000 0.000000 1.000000
0 -10.000000 -1.000000 6.000000 -1.000000 -0.000000 -0.000000 0.000000 1.000000
fs_meter
0 -10.000000 0.000000 8.000000 -1.000000 -0.000000 -0.000000 0.000000 0.000000
0 -10.000000 -1.000000 6.000000 -1.000000 -0.000000 -0.000000 0.000000 1.000000
0 -10.000000 -1.000000 8.000000 -1.000000 -0.000000 -0.000000 0.000000 0.000000
fs_meter
0 -10.000000 0.000000 10.000000 -1.000000 -0.000000 -0.000000 0.000000 0.000000
0 -10.000000 0.000000 8.000000 -1.000000 -0.000000 -0.000000 0.000000 1.000000
0 -10.000000 -1.000000 8.000000 -1.000000 -0.000000 -0.000000 0.000000 1.000000
fs_meter
0 -10.000000 0.000000 10.000000 -1.000000 -0.000000 -0.000000 0.000000 0.000000
0 -10.000000 -1.000000 8.000000 -1.000000 -0.000000 -0.000000 0.000000 1.000000
0 -10.000000 -1.000000 10.000000 -1.000000 -0.000000 -0.000000 0.000000 0.000000
fs_meter
0 -10.000000 0.000000 12.000000 -1.000000 -0.000000 -0.000000 0.000000 0.000000
0 -10.000000 0.000000 10.000000 -1.000000 -0.000000 -0.000000 0.000000 1.000000
0 -10.000000 -1.000000 10.000000 -1.000000 -0.000000 -0.000000 0.000000 1.000000
fs_meter
0 -10.000000 0.000000 12.000000 -1.000000 -0.000000 -0.000000 0.000000 0.000000
0 -10.000000 -1.000000 10.000000 -1.000000 -0.000000 -0.000000 0.000000 1.000000
0 -10.000000 -1.000000 12.000000 -1.000000 -0.000000 -0.000000 0.000000 0.000000
fs_meter
0 -10.000000 0.000000 14.000000 -1.000000 -0.000000 -0.000000 0.000000 0.000000
0 -10.000000 0.000000 12.000000 -1.000000 -0.000000 -0.000000 0.000000 1.000000
0 -10.000000 -1.000000 12.000000 -1.000000 -0.000000 -0.000000 0.000000 1.000000
fs_meter
0 -10.000000 0.000000 14.000000 -1.000000 -0.000000 -0.000000 0.000000 0.000000
0 -10.000000 -1.000000 12.000000 -1.000000 -0.000000 -0.000000 0.000000 1.000000
0 -10.000000 -1.000000 14.000000 -1.000000 -0.000000 -0.000000 0.000000 0.000000
fs_meter
0 -10.000000 0.000000 16.000000 -1.000000 -0.000000 -0.000000 0.000000 0.000000
0 -10.000000 0.000000 14.000000 -1.000000 -0.000000 -0.000000 0.000000 1.000000
0 -10.000000 -1.000000 14.000000 -1.000000 -0.000000 -0.000000 0.000000 1.000000
fs_meter
0 -10.000000 0.000000 16.000000 -1.000000 -0.000000 -0.000000 0.000000 0.000000
0 -10.000000 -1.000000 14.000000 -1.000000 -0.000000 -0.000000 0.000000 1.000000
0 -10.000000 -1.000000 16.000000 -1.000000 -0.000000 -0.000000 0.000000 0.000000
fs_meter
0 -10.000000 0.000000 18.000000 -1.000000 -0.000000 -0.000000 0.000000 0.000000
0 -10.000000 0.000000 16.000000 -1.000000 -0.000000 -0.000000 0.000000 1.000000
0 -10.000000 -1.000000 16.000000 -1.000000 -0.000000 -0.000000 0.000000 1.000000
fs_meter
0 -10.000000 0.000000 18.000000 -1.000000 -0.000000 -0.000000 0.000000 0.000000
0 -10.000000 -1.000000 16.000000 -1.000000 -0.000000 -0.000000 0.000000 1.000000
0 -10.000000 -1.000000 18.000000 -1.000000 -0.000000 -0.000000 0.000000 0.000000
fs_meter
0 -8.000000 0.000000 20.000000 0.000000 0.000000 1.000000 1.000000 0.000000
0 -10.000000 0.000000 20.000000 0.000000 0.000000 1.000000 0.000000 0.000000
0 -10.000000 -1.000000 20.000000 0.000000 0.000000 1.000000 0.000000 0.000000
fs_meter
0 -8.000000 0.000000 20.000000 0.000000 0.000000 1.000000 1.000000 0.000000
0 -10.000000 -1.000000 20.000000 0.000000 0.000000 1.000000 0.000000 0.000000
0 -8.000000 -1.000000 20.000000 0.000000 0.000000 1.000000 1.000000 0.000000
fs_meter
0 -10.000000 0.000000 20.000000 -1.000000 -0.000000 -0.000000 0.000000 0.000000
0 -10.000000 0.000000 18.000000 -1.000000 -0.000000 -0.000000 0.000000 1.000000
0 -10.000000 -1.000000 18.000000 -1.000000 -0.000000 -0.000000 0.000000 1.000000
fs_meter
0 -10.000000 0.000000 20.000000 -1.000000 -0.000000 -0.000000 0.000000 0.000000
0 -10.000000 -1.000000 18.000000 -1.000000 -0.000000 -0.000000 0.000000 1.000000
0 -10.000000 -1.000000 20.000000 -1.000000 -0.000000 -0.000000 0.000000 0.000000
fs_meter
0 -8.000000 0.000000 0.000000 0.000000 0.000000 -1.000000 0.000000 1.000000
0 -6.000000 0.000000 0.000000 0.000000 0.000000 -1.000000 1.000000 1.000000
0 -6.000000 -1.000000 0.000000 0.000000 0.000000 -1.000000 1.000000 1.000000
fs_meter
0 -8.000000 0.000000 0.000000 0.000000 0.000000 -1.000000 0.000000 1.000000
0 -6.000000 -1.000000 0.000000 0.000000 0.000000 -1.000000 1.000000 1.000000
0 -8.000000 -1.000000 0.000000 0.000000 0.000000 -1.000000 0.000000 1.000000
fs_meter
0 -6.000000 0.000000 12.000000 1.000000 0.000000 -0.000000 1.000000 1.000000
0 -6.000000 0.000000 14.000000 1.000000 0.000000 -0.000000 1.000000 0.000000
0 -6.000000 -1.000000 14.000000 1.000000 0.000000 -0.000000 1.000000 0.000000
fs_meter
0 -6.000000 0.000000 12.000000 1.000000 0.000000 -0.000000 1.000000 1.000000
0 -6.000000 -1.000000 14.000000 1.000000 0.000000 -0.000000 1.000000 0.000000
0 -6.000000 -1.000000 12.000000 1.000000 0.000000 -0.000000 1.000000 1.000000
fs_meter
0 -6.000000 0.000000 14.000000 1.000000 0.000000 -0.000000 1.000000 1.000000
0 -6.000000 0.000000 16.000000 1.000000 0.000000 -0.000000 1.000000 0.000000
0 -6.000000 -1.000000 16.000000 1.000000 0.000000 -0.000000 1.000000 0.000000
fs_meter
0 -6.000000 0.000000 14.000000 1.000000 0.000000 -0.000000 1.000000 1.000000
0 -6.000000 -1.000000 16.000000 1.000000 0.000000 -0.000000 1.000000 0.000000
0 -6.000000 -1.000000 14.000000 1.000000 0.000000 -0.000000 1.000000 1.000000
fs_meter
0 -6.000000 0.000000 16.000000 1.000000 0.000000 -0.000000 1.000000 1.000000
0 -6.000000 0.000000 18.000000 1.000000 0.000000 -0.000000 1.000000 0.000000
0 -6.000000 -1.000000 18.000000 1.000000 0.000000 -0.000000 1.000000 0.000000
fs_meter
0 -6.000000 0.000000 16.000000 1.000000 0.000000 -0.000000 1.000000 1.000000
0 -6.000000 -1.000000 18.000000 1.000000 0.000000 -0.000000 1.000000 0.000000
0 -6.000000 -1.000000 16.000000 1.000000 0.000000 -0.000000 1.000000 1.000000
fs_meter
0 -6.000000 0.000000 18.000000 1.000000 0.000000 -0.000000 1.000000 1.000000
0 -6.000000 0.000000 20.000000 1.000000 0.000000 -0.000000 1.000000 0.000000
0 -6.000000 -1.000000 20.000000 1.000000 0.000000 -0.000000 1.000000 0.000000
fs_meter
0 -6.000000 0.000000 18.000000 1.000000 0.000000 -0.000000 1.000000 1.000000
0 -6.000000 -1.000000 20.000000 1.000000 0.000000 -0.000000 1.000000 0.000000
0 -6.000000 -1.000000 18.000000 1.000000 0.000000 -0.000000 1.000000 1.000000
fs_meter
0 -6.000000 0.000000 20.000000 0.000000 0.000000 1.000000 1.000000 0.000000
0 -8.000000 0.000000 20.000000 0.000000 0.000000 1.000000 0.000000 0.000000
0 -8.000000 -1.000000 20.000000 0.000000 0.000000 1.000000 0.000000 0.000000
fs_meter
0 -6.000000 0.000000 20.000000 0.000000 0.000000 1.000000 1.000000 0.000000
0 -8.000000 -1.000000 20.000000 0.000000 0.000000 1.000000 0.000000 0.000000
0 -6.000000 -1.000000 20.000000 0.000000 0.000000 1.000000 1.000000 0.000000
fs_meter
0 -6.000000 0.000000 0.000000 0.000000 0.000000 -1.000000 0.000000 1.000000
0 -4.000000 0.000000 0.000000 0.000000 0.000000 -1.000000 1.000000 1.000000
0 -4.000000 -1.000000 0.000000 0.000000 0.000000 -1.000000 1.000000 1.000000
fs_meter
0 -6.000000 0.000000 0.000000 0.000000 0.000000 -1.000000 0.000000 1.000000
0 -4.000000 -1.000000 0.000000 0.000000 0.000000 -1.000000 1.000000 1.000000
0 -6.000000 -1.000000 0.000000 0.000000 0.000000 -1.000000 0.000000 1.000000
fs_meter
0 -4.000000 0.000000 0.000000 1.000000 0.000000 -0.000000 1.000000 1.000000
0 -4.000000 0.000000 2.000000 1.000000 0.000000 -0.000000 1.000000 0.000000
0 -4.000000 -1.000000 2.000000 1.000000 0.000000 -0.000000 1.000000 0.000000
fs_meter
0 -4.000000 0.000000 0.000000 1.000000 0.000000 -0.000000 1.000000 1.000000
0 -4.000000 -1.000000 2.000000 1.000000 0.000000 -0.000000 1.000000 0.000000
0 -4.000000 -1.000000 0.000000 1.000000 0.000000 -0.000000 1.000000 1.000000
fs_meter
0 -4.000000 0.000000 2.000000 1.000000 0.000000 -0.000000 1.000000 1.000000
0 -4.000000 0.000000 4.000000 1.000000 0.000000 -0.000000 1.000000 0.000000
0 -4.000000 -1.000000 4.000000 1.000000 0.000000 -0.000000 1.000000 0.000000
fs_meter
0 -4.000000 0.000000 2.000000 1.000000 0.000000 -0.000000 1.000000 1.000000
0 -4.000000 -1.000000 4.000000 1.000000 0.000000 -0.000000 1.000000 0.000000
0 -4.000000 -1.000000 2.000000 1.000000 0.000000 -0.000000 1.000000 1.000000
fs_meter
0 -4.000000 0.000000 4.000000 1.000000 0.000000 -0.000000 1.000000 1.000000
0 -4.000000 0.000000 6.000000 1.000000 0.000000 -0.000000 1.000000 0.000000
0 -4.000000 -1.000000 6.000000 1.000000 0.000000 -0.000000 1.000000 0.000000
fs_meter
0 -4.000000 0.000000 4.000000 1.000000 0.000000 -0.000000 1.000000 1.000000
0 -4.000000 -1.000000 6.000000 1.000000 0.000000 -0.000000 1.000000 0.000000
0 -4.000000 -1.000000 4.000000 1.000000 0.000000 -0.000000 1.000000 1.000000
fs_meter
0 -4.000000 0.000000 6.000000 1.000000 0.000000 -0.000000 1.000000 1.000000
0 -4.000000 0.000000 8.000000 1.000000 0.000000 -0.000000 1.000000 0.000000
0 -4.000000 -1.000000 8.000000 1.000000 0.000000 -0.000000 1.000000 0.000000
fs_meter
0 -4.000000 0.000000 6.000000 1.000000 0.000000 -0.000000 1.000000 1.000000
0 -4.000000 -1.000000 8.000000 1.000000 0.000000 -0.000000 1.000000 0.000000
0 -4.000000 -1.000000 6.000000 1.000000 0.000000 -0.000000 1.000000 1.000000
fs_meter
0 -4.000000 0.000000 8.000000 1.000000 0.000000 -0.000000 1.000000 1.000000
0 -4.000000 0.000000 10.000000 1.000000 0.000000 -0.000000 1.000000 0.000000
0 -4.000000 -1.000000 10.000000 1.000000 0.000000 -0.000000 1.000000 0.000000
fs_meter
0 -4.000000 0.000000 8.000000 1.000000 0.000000 -0.000000 1.000000 1.000000
0 -4.000000 -1.000000 10.000000 1.000000 0.000000 -0.000000 1.000000 0.000000
0 -4.000000 -1.000000 8.000000 1.000000 0.000000 -0.000000 1.000000 1.000000
fs_meter
0 -4.000000 0.000000 10.000000 1.000000 0.000000 -0.000000 1.000000 1.000000
0 -4.000000 0.000000 12.000000 1.000000 0.000000 -0.000000 1.000000 0.000000
0 -4.000000 -1.000000 12.000000 1.000000 0.000000 -0.000000 1.000000 0.000000
fs_meter
0 -4.000000 0.000000 10.000000 1.000000 0.000000 -0.000000 1.000000 1.000000
0 -4.000000 -1.000000 12.000000 1.000000 0.000000 -0.000000 1.000000 0.000000
0 -4.000000 -1.000000 10.000000 1.000000 0.000000 -0.000000 1.000000 1.000000
fs_meter
0 -4.000000 0.000000 12.000000 0.000000 0.000000 1.000000 1.000000 0.000000
0 -6.000000 0.000000 12.000000 0.000000 0.000000 1.000000 0.000000 0.000000
0 -6.000000 -1.000000 12.000000 0.000000 0.000000 1.000000 0.000000 0.000000
fs_meter
0 -4.000000 0.000000 12.000000 0.000000 0.000000 1.000000 1.000000 0.000000
0 -6.000000 -1.000000 12.000000 0.000000 0.000000 1.000000 0.000000 0.000000
0 -4.000000 -1.000000 12.000000 0.000000 0.000000 1.000000 1.000000 0.000000
end
